<svg xmlns="http://www.w3.org/2000/svg" viewBox="0 0 240 234" width="64" height="64">
  <path fill="#1F0040" d="M10 10h220v214H10z"/>
  <path fill="#D291FF" d="M0 0v234h240V0H0zm10 10h220v214H10V10z"/>
  <path fill="#D291FF" d="M96.4 140.5c-4.2 1.7-8.8 2.5-13.8 2.5-3.8 0-7.3-0.6-10.4-1.7-3.2-1.1-5.9-2.8-8.1-5-2.2-2.2-4-4.9-5.2-8.1-1.2-3.2-1.8-6.9-1.8-11.1 0-4.5 0.7-8.4 2-11.9 1.3-3.5 3.2-6.4 5.7-8.8 2.4-2.4 5.3-4.2 8.7-5.4 3.4-1.2 7.1-1.8 11.1-1.8 2.9 0 5.5 0.2 7.8 0.7 2.3 0.5 4.9 1.2 7.7 2.1v13.9c-2.4-1.3-4.7-2.3-7-2.9-2.3-0.6-4.6-0.9-7-0.9-4.1 0-7.4 1.3-9.7 3.8-2.4 2.5-3.5 6.1-3.5 10.7 0 4.4 1.1 7.8 3.4 10.3 2.3 2.5 5.5 3.7 9.6 3.7 2.5 0 4.9-0.3 7.2-1 2.3-0.7 4.6-1.7 6.9-3.1v13.9h-0.1zM150.8 142h-38.8V89.2h38.8v11.9h-24.8v8.1h23.2v11.9h-23.2v9h24.8V142z"/>
</svg> 