<svg xmlns="http://www.w3.org/2000/svg" viewBox="0 0 240 234" width="64" height="64">
  <path fill="#001E36" d="M10 10h220v214H10z"/>
  <path fill="#31A8FF" d="M0 0v234h240V0H0zm10 10h220v214H10V10z"/>
  <path fill="#31A8FF" d="M54.6 163V68.4h43.9c9.1 0 16.3 1.1 21.6 3.3 5.3 2.2 9.6 5.5 12.9 10.1 3.3 4.5 4.9 9.7 4.9 15.5 0 5.2-1.3 9.8-3.8 13.8-2.5 4-6.1 7.2-10.7 9.6-3 1.5-7.1 2.8-12.2 3.7 4.1 1.4 7.1 2.8 8.9 4.2 1.2 1 3 2.9 5.2 5.8 2.2 2.9 3.7 5.1 4.5 6.6l15.6 22h-28.1l-17.2-23.9c-2.1-3.1-3.6-5.1-4.4-5.9-1.1-1.1-2.3-1.9-3.6-2.3-1.3-0.4-3.3-0.6-6.1-0.6h-4.2V163H54.6zm26.2-73.7v25.9h14.6c5.2 0 9.2-0.5 11.9-1.6 2.7-1.1 4.8-2.8 6.3-5.2 1.5-2.4 2.2-5 2.2-7.8 0-4.1-1.5-7.3-4.5-9.7-3-2.4-7.7-3.6-14.1-3.6H80.8zM165.9 163h-24.9V68.4h24.9V163z"/>
</svg> 