<svg xmlns="http://www.w3.org/2000/svg" viewBox="0 0 240 234" width="64" height="64">
  <path fill="#470137" d="M10 10h220v214H10z"/>
  <path fill="#FF61F6" d="M0 0v234h240V0H0zm10 10h220v214H10V10z"/>
  <path fill="#FF61F6" d="M95.1 119.7l27.8 53.7h-19.2l-19.9-38.3-19.8 38.3H45.3l27.7-53.7L48.2 67.3h19.2l18.8 36.3 18.8-36.3h18.8l-28.7 52.4zm84.3-24.4c8.5 0 29.1 2.3 29.1 35.4 0 32.7-21.1 35.4-29.8 35.4h-32.9V67.3h32.9c8.5 0 29.1 2.3 29.1 35.4 0 4.8-.5 9.2-1.5 13-2.5 9.2-8.5 14.6-16.9 14.6h-10.9v28h10.9c8.5 0 14.4-5.4 16.9-14.6 1-3.8 1.5-8.2 1.5-13z"/>
</svg> 